<svg xmlns="http://www.w3.org/2000/svg" width="1200" height="800" viewBox="0 0 1200 800">
  <defs>
    <linearGradient id="bg" x1="0%" y1="0%" x2="100%" y2="100%">
      <stop offset="0%" stop-color="#d4f1f4"/>
      <stop offset="50%" stop-color="#9ad0ec"/>
      <stop offset="100%" stop-color="#6ab7d6"/>
    </linearGradient>
    <linearGradient id="river" x1="0%" y1="0%" x2="100%" y2="0%">
      <stop offset="0%" stop-color="#8ddad5"/>
      <stop offset="100%" stop-color="#60a7d4"/>
    </linearGradient>
  </defs>
  <rect width="1200" height="800" fill="url(#bg)"/>
  <path d="M0,500 C200,450 300,550 450,520 C600,490 650,560 800,520 C950,480 1050,520 1200,480 L1200,800 L0,800 Z" fill="#b5e0d3"/>
  <path d="M0,520 C220,470 320,580 480,540 C640,500 700,580 860,540 C1020,500 1100,560 1200,520 L1200,800 L0,800 Z" fill="#9ed3c5" opacity="0.9"/>
  <path d="M0,560 C180,520 320,600 480,560 C640,520 720,600 880,560 C1040,520 1100,580 1200,560 L1200,800 L0,800 Z" fill="url(#river)" opacity="0.95"/>
  <circle cx="180" cy="260" r="40" fill="#f5f7fa" opacity="0.8"/>
  <circle cx="240" cy="240" r="25" fill="#f5f7fa" opacity="0.8"/>
  <circle cx="300" cy="260" r="35" fill="#f5f7fa" opacity="0.8"/>
  <circle cx="860" cy="180" r="50" fill="#f5f7fa" opacity="0.8"/>
  <circle cx="920" cy="200" r="30" fill="#f5f7fa" opacity="0.8"/>
  <circle cx="980" cy="190" r="40" fill="#f5f7fa" opacity="0.8"/>
  <text x="60" y="120" font-family="'Segoe UI', 'Noto Sans SC', sans-serif" font-size="48" fill="#2c5f63" opacity="0.85">温榆河滨水绿道</text>
  <text x="60" y="180" font-family="'Segoe UI', 'Noto Sans SC', sans-serif" font-size="24" fill="#2c5f63" opacity="0.75">Waterfront Greenway · Beijing</text>
</svg>
